<?xml version="1.0" encoding="iso-8859-1"?>
<!-- Uploaded to: SVG Repo, www.svgrepo.com, Generator: SVG Repo Mixer Tools -->
<!DOCTYPE svg PUBLIC "-//W3C//DTD SVG 1.1//EN" "http://www.w3.org/Graphics/SVG/1.1/DTD/svg11.dtd">
<svg fill="#000000" version="1.1" id="Capa_1" xmlns="http://www.w3.org/2000/svg" xmlns:xlink="http://www.w3.org/1999/xlink" 
	 width="800px" height="800px" viewBox="0 0 93.719 93.719"
	 xml:space="preserve">
<g>
	<g>
		<path d="M19.147,49.266c-0.37,1.436-1.43,4.984-3.18,10.65h6.41c-1.649-5.308-2.578-8.307-2.784-9.003
			C19.385,50.218,19.237,49.669,19.147,49.266z"/>
		<path d="M42.536,55.087c-1.268,0-2.192,0.392-2.776,1.169c-0.584,0.78-0.886,2.069-0.909,3.862v0.556
			c0,2.021,0.301,3.467,0.9,4.342c0.6,0.876,1.551,1.312,2.852,1.312c1.054,0,1.893-0.484,2.516-1.456
			c0.622-0.97,0.934-2.381,0.934-4.231c0-1.852-0.315-3.238-0.943-4.163C44.483,55.55,43.624,55.087,42.536,55.087z"/>
		<path d="M93.636,19.687l-0.593-2.895c-0.445-2.176-2.574-3.582-4.743-3.147l-0.461,0.089c-0.571,0.109-1.216,0.234-1.888,0.418
			c-0.689,0.166-1.332,0.371-1.899,0.552l-0.387,0.122c-0.046,0.015-0.091,0.029-0.136,0.045c-1.489,0.525-2.98,1.155-4.484,1.898
			c-1.375,0.703-2.746,1.493-4.105,2.366c-1.264,0.828-2.523,1.729-3.767,2.693c-1.063,0.84-2.106,1.724-3.128,2.638h-7.771
			l-2.164-2.348c-0.735-0.798-1.763-1.268-2.848-1.3c-1.098-0.029-2.139,0.372-2.921,1.126l-2.623,2.521H0v55.689h76.727V33.69
			c0.797-0.85,1.615-1.666,2.45-2.441c0.876-0.805,1.796-1.584,2.708-2.296c0.909-0.694,1.861-1.353,2.831-1.956l0.302-0.177
			c0.364-0.214,0.729-0.431,1.108-0.619c0.05-0.026,0.101-0.052,0.151-0.08c0.332-0.184,0.677-0.34,1.02-0.499l0.752-0.329
			c0.338-0.138,0.676-0.281,1.021-0.392c0.062-0.02,0.125-0.043,0.188-0.064c0.326-0.122,0.658-0.211,0.991-0.304l0.572-0.163
			C92.836,23.775,94.059,21.741,93.636,19.687z M25.407,70.147l-1.784-5.856h-8.968l-1.784,5.856h-5.62l8.684-24.701h6.376
			l8.716,24.701H25.407z M49.342,67.925c-1.295,1.705-3.06,2.56-5.292,2.56c-2.21,0-3.943-0.805-5.2-2.407h-0.354l-0.857,2.07
			h-3.921V43.964h5.132v6.091c0,0.774-0.067,2.015-0.203,3.719h0.203c1.201-1.861,2.979-2.794,5.334-2.794
			c2.221,0,3.958,0.866,5.216,2.601c1.256,1.733,1.885,4.11,1.885,7.125C51.287,63.815,50.639,66.22,49.342,67.925z M63.619,66.328
			c0.988,0,1.902-0.133,2.744-0.396c0.841-0.265,1.683-0.678,2.522-1.237v4.393c-0.829,0.527-1.667,0.892-2.514,1.095
			c-0.847,0.2-1.917,0.303-3.206,0.303c-5.855,0-8.783-3.214-8.783-9.644c0-3.196,0.795-5.639,2.389-7.328
			c1.594-1.688,3.877-2.532,6.85-2.532c2.177,0,4.128,0.428,5.855,1.279l-1.517,3.971c-0.806-0.325-1.558-0.593-2.253-0.801
			c-0.697-0.206-1.393-0.311-2.088-0.311c-2.67,0-4.004,1.896-4.004,5.688C59.615,64.488,60.949,66.328,63.619,66.328z
			 M87.609,20.761c-0.607,0.192-1.199,0.456-1.791,0.692c-0.582,0.275-1.17,0.53-1.735,0.844c-0.576,0.288-1.13,0.624-1.687,0.947
			c-1.101,0.682-2.168,1.42-3.203,2.211c-1.025,0.799-2.023,1.646-2.985,2.526c-1.918,1.781-3.716,3.708-5.375,5.745
			c-0.832,1.02-1.632,2.063-2.397,3.126c-0.38,0.533-0.758,1.069-1.117,1.611c-0.353,0.528-0.73,1.108-1.014,1.591l-1.816,2.988
			l-2.576-2.564L50.335,28.953l4.567-4.394l8.869,9.632c0.166-0.2,0.33-0.407,0.498-0.607c0.926-1.081,1.875-2.133,2.858-3.155
			c1.963-2.042,4.067-3.957,6.306-5.721c1.125-0.872,2.286-1.707,3.481-2.49c1.206-0.773,2.448-1.491,3.731-2.148
			c1.291-0.638,2.621-1.203,3.987-1.685c0.69-0.217,1.377-0.449,2.087-0.617c0.698-0.195,1.419-0.314,2.131-0.457l0.594,2.894
			C88.829,20.385,88.21,20.537,87.609,20.761z"/>
	</g>
</g>
</svg>